<?xml version="1.0" encoding="utf-8"?>
<!-- Generator: Adobe Illustrator 26.0.3, SVG Export Plug-In . SVG Version: 6.00 Build 0)  -->
<svg version="1.0" id="katman_1" xmlns="http://www.w3.org/2000/svg" xmlns:xlink="http://www.w3.org/1999/xlink" x="0px" y="0px"
	 viewBox="0 0 600 450" style="enable-background:new 0 0 600 450;" xml:space="preserve">
<style type="text/css">
	.st0{fill:#222323;}
</style>
<g>
	<path class="st0" d="M141.2,187.5c-3.9-2.3-7.8-3.9-11.7-5.5c-5.5-0.8-10.2-1.6-15.6-1.6H81.1v100h18V239h13.3
		c4.7,0,10.2-0.8,14.8-1.6c4.7-0.8,8.6-2.3,12.5-4.7c3.9-2.3,6.2-5.5,8.6-9.4c2.3-3.9,3.1-9.4,3.1-14.1c0-4.7-0.8-9.4-2.3-13.3
		C146.7,193,144.3,189.8,141.2,187.5z M131.8,217.2l-4.7,4.7l-7,2.3c-3.1,0.8-5.5,0.8-8.6,0.8H99v-29.7h13.3c2.3,0,5.5,0,7.8,0.8
		c2.3,0,4.7,0.8,7,2.3c4.7,2.3,7,6.2,7,11.7L131.8,217.2z M210.7,220.3c-2.3-3.1-5.5-5.5-9.4-7c-4.7-1.6-10.2-2.3-14.8-2.3
		c-5.5,0-10.2,0.8-15.6,2.3c-4.7,1.6-9.4,4.7-13.3,7.8l8.6,10.2c2.3-2.3,5.5-3.9,7.8-5.5c3.1-1.6,7-2.3,10.2-2.3
		c3.9,0,7.8,0.8,10.9,3.1s4.7,5.5,4.7,9.4v1.6c-5.5,0-10.9,0-16.4,0.8s-10.2,1.6-14.8,3.1c-3.9,1.6-7.8,3.9-10.9,7
		c-3.1,3.1-4.7,7.8-4.7,12.5c0,3.1,0.8,7,2.3,10.2c1.6,2.3,3.9,4.7,6.2,6.2s5.5,3.1,7.8,3.9c3.1,0.8,5.5,0.8,8.6,0.8
		c4.7,0,8.6-0.8,12.5-3.1c3.1-1.6,6.2-3.9,7.8-7.8h0.8v8.6h15.6v-41.4c0-3.1-0.8-7-1.6-10.2C213.8,225.8,212.3,222.6,210.7,220.3z
		 M200.5,255.4c-0.8,8.6-9.4,14.8-18,14.1c-1.6,0-3.1,0-3.9-0.8c-1.6,0-2.3-0.8-3.9-1.6c-0.8-0.8-2.3-1.6-3.1-2.3
		c-0.8-1.6-0.8-2.3-0.8-3.9c0-2.3,0.8-4.7,2.3-6.2c1.6-1.6,3.9-2.3,6.2-3.1c2.3-0.8,5.5-1.6,8.6-1.6h12.5
		C200.5,250,200.5,255.4,200.5,255.4z M276.3,212.5h18l-32,82.8c-0.8,3.1-2.3,5.5-3.9,8.6c-1.6,2.3-3.1,4.7-5.5,6.2
		c-2.3,1.6-4.7,3.1-7,3.9c-3.1,0.8-6.2,1.6-9.4,1.6h-4.7c-1.6,0-3.1-0.8-4.7-0.8l1.6-14.8c0.8,0,2.3,0.8,3.1,0.8h3.1
		c1.6,0,3.1,0,4.7-0.8c1.6-0.8,2.3-0.8,3.1-2.3c0.8-0.8,1.6-2.3,2.3-3.1l2.3-4.7l3.1-8.6l-28.9-68.7h18.7l18.7,49.2
		C259.1,261.7,276.3,212.5,276.3,212.5z M473.1,124.2H362.2c-25,0-46.1,20.3-46.1,46.1v110.1c0,25,20.3,46.1,46.1,46.1h110.9
		c25,0,46.1-20.3,46.1-46.1V170.3C519.2,144.5,498.9,124.2,473.1,124.2z M402.8,173.4l5.5-0.8c8.6-0.8,17.2,0,25.8,1.6
		c16.4,2.3,31.2,13.3,38.3,28.9l-11.7,4.7c-8.6-20.3-32.8-22.6-43.7-22.6v60.9h-13.3v-72.6H402.8z M361.4,182
		c0-5.5,4.7-10.2,10.2-10.2s10.2,4.7,10.2,10.2s-4.7,10.2-10.2,10.2C365.3,191.4,361.4,187.5,361.4,182z M474.7,237.5
		c-0.8,3.9-1.6,7.8-3.1,11.7c-8.6,21.1-29.7,31.2-61.7,31.2h-46.1v-71.9h13.3v59.4h33.6c25.8,0,43-7.8,49.2-23.4
		c0.8-2.3,1.6-4.7,1.6-7h-10.9l18.7-23.4l18.7,23.4C488,237.5,474.7,237.5,474.7,237.5z"/>
</g>
</svg>
